<mxfile host="app.diagrams.net" modified="2023-09-18T13:17:03.854Z" agent="Mozilla/5.0 (Windows NT 10.0; Win64; x64) AppleWebKit/537.36 (KHTML, like Gecko) Chrome/116.0.0.0 Safari/537.36" etag="kxLFFlXAxa_RLGBoAORV" version="21.7.5" type="device">
  <diagram id="C5RBs43oDa-KdzZeNtuy" name="Page-1">
    <mxGraphModel dx="1147" dy="632" grid="1" gridSize="10" guides="1" tooltips="1" connect="1" arrows="1" fold="1" page="1" pageScale="1" pageWidth="827" pageHeight="1169" background="#ffffff" math="0" shadow="0">
      <root>
        <mxCell id="WIyWlLk6GJQsqaUBKTNV-0" />
        <mxCell id="WIyWlLk6GJQsqaUBKTNV-1" parent="WIyWlLk6GJQsqaUBKTNV-0" />
        <mxCell id="I6FjLDuZRP-UExATOWhg-6" value="" style="edgeStyle=orthogonalEdgeStyle;rounded=0;orthogonalLoop=1;jettySize=auto;html=1;" edge="1" parent="WIyWlLk6GJQsqaUBKTNV-1" source="WIyWlLk6GJQsqaUBKTNV-3" target="I6FjLDuZRP-UExATOWhg-0">
          <mxGeometry relative="1" as="geometry" />
        </mxCell>
        <mxCell id="WIyWlLk6GJQsqaUBKTNV-3" value="Start" style="rounded=1;whiteSpace=wrap;html=1;fontSize=12;glass=0;strokeWidth=1;shadow=0;" parent="WIyWlLk6GJQsqaUBKTNV-1" vertex="1">
          <mxGeometry x="240" y="56" width="120" height="40" as="geometry" />
        </mxCell>
        <mxCell id="I6FjLDuZRP-UExATOWhg-12" value="" style="edgeStyle=orthogonalEdgeStyle;rounded=0;orthogonalLoop=1;jettySize=auto;html=1;" edge="1" parent="WIyWlLk6GJQsqaUBKTNV-1" source="I6FjLDuZRP-UExATOWhg-0" target="I6FjLDuZRP-UExATOWhg-11">
          <mxGeometry relative="1" as="geometry" />
        </mxCell>
        <mxCell id="I6FjLDuZRP-UExATOWhg-0" value="array[]" style="shape=parallelogram;perimeter=parallelogramPerimeter;whiteSpace=wrap;html=1;fixedSize=1;" vertex="1" parent="WIyWlLk6GJQsqaUBKTNV-1">
          <mxGeometry x="240" y="120" width="120" height="60" as="geometry" />
        </mxCell>
        <mxCell id="I6FjLDuZRP-UExATOWhg-10" style="edgeStyle=orthogonalEdgeStyle;rounded=0;orthogonalLoop=1;jettySize=auto;html=1;exitX=0.5;exitY=1;exitDx=0;exitDy=0;" edge="1" parent="WIyWlLk6GJQsqaUBKTNV-1" source="I6FjLDuZRP-UExATOWhg-0" target="I6FjLDuZRP-UExATOWhg-0">
          <mxGeometry relative="1" as="geometry" />
        </mxCell>
        <mxCell id="I6FjLDuZRP-UExATOWhg-14" value="" style="edgeStyle=orthogonalEdgeStyle;rounded=0;orthogonalLoop=1;jettySize=auto;html=1;" edge="1" parent="WIyWlLk6GJQsqaUBKTNV-1" source="I6FjLDuZRP-UExATOWhg-11" target="I6FjLDuZRP-UExATOWhg-13">
          <mxGeometry relative="1" as="geometry" />
        </mxCell>
        <mxCell id="I6FjLDuZRP-UExATOWhg-11" value="newArray = []&lt;br&gt;index = 0&lt;br&gt;size = array.lenght" style="rounded=0;whiteSpace=wrap;html=1;" vertex="1" parent="WIyWlLk6GJQsqaUBKTNV-1">
          <mxGeometry x="240" y="200" width="120" height="60" as="geometry" />
        </mxCell>
        <mxCell id="I6FjLDuZRP-UExATOWhg-16" value="YES" style="edgeStyle=orthogonalEdgeStyle;rounded=0;orthogonalLoop=1;jettySize=auto;html=1;" edge="1" parent="WIyWlLk6GJQsqaUBKTNV-1" source="I6FjLDuZRP-UExATOWhg-13" target="I6FjLDuZRP-UExATOWhg-15">
          <mxGeometry relative="1" as="geometry" />
        </mxCell>
        <mxCell id="I6FjLDuZRP-UExATOWhg-27" value="NO" style="edgeStyle=orthogonalEdgeStyle;rounded=0;orthogonalLoop=1;jettySize=auto;html=1;" edge="1" parent="WIyWlLk6GJQsqaUBKTNV-1" source="I6FjLDuZRP-UExATOWhg-13" target="I6FjLDuZRP-UExATOWhg-26">
          <mxGeometry relative="1" as="geometry" />
        </mxCell>
        <mxCell id="I6FjLDuZRP-UExATOWhg-13" value="index &amp;lt; array.lenght" style="rhombus;whiteSpace=wrap;html=1;" vertex="1" parent="WIyWlLk6GJQsqaUBKTNV-1">
          <mxGeometry x="230" y="280" width="140" height="80" as="geometry" />
        </mxCell>
        <mxCell id="I6FjLDuZRP-UExATOWhg-18" value="YES" style="edgeStyle=orthogonalEdgeStyle;rounded=0;orthogonalLoop=1;jettySize=auto;html=1;" edge="1" parent="WIyWlLk6GJQsqaUBKTNV-1" source="I6FjLDuZRP-UExATOWhg-15" target="I6FjLDuZRP-UExATOWhg-17">
          <mxGeometry relative="1" as="geometry" />
        </mxCell>
        <mxCell id="I6FjLDuZRP-UExATOWhg-22" value="NO" style="edgeStyle=orthogonalEdgeStyle;rounded=0;orthogonalLoop=1;jettySize=auto;html=1;" edge="1" parent="WIyWlLk6GJQsqaUBKTNV-1" source="I6FjLDuZRP-UExATOWhg-15" target="I6FjLDuZRP-UExATOWhg-21">
          <mxGeometry relative="1" as="geometry" />
        </mxCell>
        <mxCell id="I6FjLDuZRP-UExATOWhg-15" value="array[index].lenght &amp;lt;= 3&amp;nbsp;" style="rhombus;whiteSpace=wrap;html=1;" vertex="1" parent="WIyWlLk6GJQsqaUBKTNV-1">
          <mxGeometry x="225.5" y="410" width="149" height="80" as="geometry" />
        </mxCell>
        <mxCell id="I6FjLDuZRP-UExATOWhg-23" style="edgeStyle=orthogonalEdgeStyle;rounded=0;orthogonalLoop=1;jettySize=auto;html=1;entryX=0.5;entryY=1;entryDx=0;entryDy=0;" edge="1" parent="WIyWlLk6GJQsqaUBKTNV-1" source="I6FjLDuZRP-UExATOWhg-17" target="I6FjLDuZRP-UExATOWhg-21">
          <mxGeometry relative="1" as="geometry">
            <mxPoint x="180" y="660" as="targetPoint" />
          </mxGeometry>
        </mxCell>
        <mxCell id="I6FjLDuZRP-UExATOWhg-17" value="newArray[] = array[index]" style="rounded=0;whiteSpace=wrap;html=1;" vertex="1" parent="WIyWlLk6GJQsqaUBKTNV-1">
          <mxGeometry x="230" y="540" width="140" height="60" as="geometry" />
        </mxCell>
        <mxCell id="I6FjLDuZRP-UExATOWhg-24" style="edgeStyle=orthogonalEdgeStyle;rounded=0;orthogonalLoop=1;jettySize=auto;html=1;entryX=0;entryY=0.5;entryDx=0;entryDy=0;" edge="1" parent="WIyWlLk6GJQsqaUBKTNV-1" source="I6FjLDuZRP-UExATOWhg-21" target="I6FjLDuZRP-UExATOWhg-13">
          <mxGeometry relative="1" as="geometry">
            <Array as="points">
              <mxPoint x="100" y="320" />
            </Array>
          </mxGeometry>
        </mxCell>
        <mxCell id="I6FjLDuZRP-UExATOWhg-21" value="index ++" style="rounded=0;whiteSpace=wrap;html=1;" vertex="1" parent="WIyWlLk6GJQsqaUBKTNV-1">
          <mxGeometry x="40" y="420" width="120" height="60" as="geometry" />
        </mxCell>
        <mxCell id="I6FjLDuZRP-UExATOWhg-29" value="" style="edgeStyle=orthogonalEdgeStyle;rounded=0;orthogonalLoop=1;jettySize=auto;html=1;" edge="1" parent="WIyWlLk6GJQsqaUBKTNV-1" source="I6FjLDuZRP-UExATOWhg-26" target="I6FjLDuZRP-UExATOWhg-28">
          <mxGeometry relative="1" as="geometry" />
        </mxCell>
        <mxCell id="I6FjLDuZRP-UExATOWhg-26" value="print(newArray)" style="shape=document;whiteSpace=wrap;html=1;boundedLbl=1;" vertex="1" parent="WIyWlLk6GJQsqaUBKTNV-1">
          <mxGeometry x="440" y="280" width="120" height="80" as="geometry" />
        </mxCell>
        <mxCell id="I6FjLDuZRP-UExATOWhg-28" value="End" style="rounded=1;whiteSpace=wrap;html=1;" vertex="1" parent="WIyWlLk6GJQsqaUBKTNV-1">
          <mxGeometry x="440" y="400" width="120" height="60" as="geometry" />
        </mxCell>
      </root>
    </mxGraphModel>
  </diagram>
</mxfile>
